<svg xmlns="http://www.w3.org/2000/svg" version="1.1" xmlns:xlink="http://www.w3.org/1999/xlink" xmlns:svgjs="http://svgjs.dev/svgjs" width="1000" height="1000" viewBox="0 0 1000 1000"><rect width="1000" height="1000" fill="#4d7e3e"></rect><g transform="matrix(0.7,0,0,0.7,149.57575757575756,282.1265587044535)"><svg viewBox="0 0 396 247" data-background-color="#4d7e3e" preserveAspectRatio="xMidYMid meet" height="623" width="1000" xmlns="http://www.w3.org/2000/svg" xmlns:xlink="http://www.w3.org/1999/xlink"><g id="tight-bounds" transform="matrix(1,0,0,1,0.2400000000000091,-0.09999999999999432)"><svg viewBox="0 0 395.52 247.2" height="247.2" width="395.52"><g><svg></svg></g><g><svg viewBox="0 0 395.52 247.2" height="247.2" width="395.52"><g transform="matrix(1,0,0,1,75.54432,99.69423046438895)"><svg viewBox="0 0 244.43135999999998 47.811539071222086" height="47.811539071222086" width="244.43135999999998"><g><svg viewBox="0 0 244.43135999999998 47.811539071222086" height="47.811539071222086" width="244.43135999999998"><g><svg viewBox="0 0 244.43135999999998 47.811539071222086" height="47.811539071222086" width="244.43135999999998"><g><svg viewBox="0 0 244.43135999999998 47.811539071222086" height="47.811539071222086" width="244.43135999999998"><g id="textblocktransform"><svg viewBox="0 0 244.43135999999998 47.811539071222086" height="47.811539071222086" width="244.43135999999998" id="textblock"><g><svg viewBox="0 0 244.43135999999998 25.7872595682281" height="25.7872595682281" width="244.43135999999998"><g transform="matrix(1,0,0,1,0,0)"><svg width="244.43135999999998" viewBox="3.1500000953674316 -38.75 490.9599914550781 51.79999923706055" height="25.7872595682281" data-palette-color="#c9efc7"><path d="M32.25-30.05L32.25-30.05Q32.25-28.2 30.98-27.28 29.7-26.35 27.85-26.35 26-26.35 24.7-27.1L24.7-27.1Q24.8-27.75 24.8-28.35L24.8-28.35Q24.8-30.2 23.68-31.58 22.55-32.95 19.75-32.95L19.75-32.95Q15.8-32.95 12.9-29.15 10-25.35 10-18.55 10-11.75 12.93-8.53 15.85-5.3 20.95-5.3L20.95-5.3Q23.95-5.3 26.63-6.65 29.3-8 30.9-9.85L30.9-9.85Q31.55-9.7 31.95-8.9 32.35-8.1 32.35-7.3L32.35-7.3Q32.35-4.7 28.48-2.1 24.6 0.5 19.25 0.5L19.25 0.5Q11.85 0.5 7.5-4.35 3.15-9.2 3.15-17.8 3.15-26.4 7.95-31.65 12.75-36.9 20.55-36.9L20.55-36.9Q25.4-36.9 28.83-34.9 32.25-32.9 32.25-30.05ZM62.85-21.35L62.85-21.35 62.85-4.35Q62.85-2.2 64.35-1.45L64.35-1.45Q62.8 0.5 60.5 0.5L60.5 0.5Q56.65 0.5 56.45-3.7L56.45-3.7Q53.8 0.5 48.9 0.5L48.9 0.5Q44.65 0.5 42.27-1.73 39.9-3.95 39.9-8.35L39.9-8.35 39.9-21.5Q39.9-23.7 38.4-24.45L38.4-24.45Q39.85-26.35 42.2-26.35L42.2-26.35Q46.35-26.35 46.35-21.35L46.35-21.35 46.35-8.95Q46.35-4.55 50.75-4.55L50.75-4.55Q54.75-4.55 56.4-8.9L56.4-8.9 56.4-21.5Q56.4-23.7 54.9-24.45L54.9-24.45Q56.45-26.35 58.7-26.35L58.7-26.35Q62.85-26.35 62.85-21.35ZM77.34-33.75L77.34-33.75 77.34-4.35Q77.34-2.2 78.84-1.45L78.84-1.45Q77.3 0.5 75 0.5L75 0.5Q70.9 0.5 70.9-4.5L70.9-4.5 70.9-33.9Q70.9-36 69.4-36.85L69.4-36.85Q70.84-38.75 73.2-38.75L73.2-38.75Q77.34-38.75 77.34-33.75ZM89.14-38.2Q90.84-38.2 91.94-37.18 93.04-36.15 93.04-34.48 93.04-32.8 91.62-31.43 90.19-30.05 88.39-30.05 86.59-30.05 85.47-31.1 84.34-32.15 84.34-33.9 84.34-35.65 85.89-36.93 87.44-38.2 89.14-38.2ZM92.09-21.35L92.09-21.35 92.09-4.35Q92.09-2.2 93.59-1.45L93.59-1.45Q92.04 0.5 89.74 0.5L89.74 0.5Q85.64 0.5 85.64-4.5L85.64-4.5 85.64-21.5Q85.64-23.7 84.14-24.45L84.14-24.45Q85.59-26.35 87.94-26.35L87.94-26.35Q92.09-26.35 92.09-21.35ZM123.14-17.5L123.14-17.5 123.14-4.35Q123.14-2.2 124.64-1.45L124.64-1.45Q123.09 0.5 120.79 0.5L120.79 0.5Q116.69 0.5 116.69-4.5L116.69-4.5 116.69-16.7Q116.69-21.1 112.89-21.1L112.89-21.1Q110.94-21.1 109.14-19.4 107.34-17.7 106.64-14.65L106.64-14.65 106.64-4.35Q106.64-2.2 108.14-1.45L108.14-1.45Q106.59 0.5 104.29 0.5L104.29 0.5Q100.19 0.5 100.19-4.5L100.19-4.5 100.19-21.5Q100.19-23.7 98.69-24.45L98.69-24.45Q100.14-26.35 102.49-26.35L102.49-26.35Q106.64-26.35 106.64-21.35L106.64-21.35 106.64-20.8Q107.94-23.4 110.34-24.88 112.74-26.35 115.92-26.35 119.09-26.35 121.12-24.1 123.14-21.85 123.14-17.5ZM136.29-6.65L136.29-6.65Q136.29-3.8 139.54-3.8L139.54-3.8Q142.24-3.8 144.29-6.3L144.29-6.3 144.29-11.6Q140.09-11.35 138.19-10 136.29-8.65 136.29-6.65ZM150.74-17.75L150.74-17.75 150.74-5.65Q150.74-2.7 153.34-2.05L153.34-2.05Q151.69 0.5 148.64 0.5L148.64 0.5Q145.09 0.5 144.44-3.05L144.44-3.05Q141.44 0.5 136.69 0.5L136.69 0.5Q133.39 0.5 131.34-1.2 129.29-2.9 129.29-5.95L129.29-5.95Q129.29-9.7 133.19-12 137.09-14.3 144.29-14.4L144.29-14.4 144.29-18.5Q144.29-22.85 140.84-22.85L140.84-22.85Q139.29-22.85 138.39-22.05 137.49-21.25 137.49-20.08 137.49-18.9 138.24-18.1L138.24-18.1Q136.69-16.65 134.64-16.65 132.59-16.65 131.54-17.65 130.49-18.65 130.49-20.25L130.49-20.25Q130.49-22.85 133.64-24.6 136.79-26.35 141.11-26.35 145.44-26.35 148.09-24.23 150.74-22.1 150.74-17.75ZM158.84-4.5L158.84-4.5 158.84-21.5Q158.84-23.7 157.34-24.45L157.34-24.45Q158.78-26.35 161.13-26.35L161.13-26.35Q165.28-26.35 165.28-21.4L165.28-21.4Q167.34-26.35 172.03-26.35L172.03-26.35Q174.38-26.35 175.84-25.05 177.28-23.75 177.28-21.68 177.28-19.6 176.24-18.45 175.19-17.3 173.24-17.3L173.24-17.3Q172.88-17.3 171.99-17.4L171.99-17.4Q172.13-18.15 172.13-19 172.13-19.85 171.44-20.55 170.74-21.25 169.51-21.25 168.28-21.25 167.06-20.03 165.84-18.8 165.28-16.2L165.28-16.2 165.28-4.35Q165.28-2.2 166.78-1.45L166.78-1.45Q165.24 0.5 162.94 0.5L162.94 0.5Q158.84 0.5 158.84-4.5ZM193.43-3.35L199.63-21.25Q200.13-22.5 200.13-23.6 200.13-24.7 199.53-25.55L199.53-25.55Q200.83-26.35 202.73-26.35 204.63-26.35 205.78-24.6L205.78-24.6Q206.33-23.75 206.33-22.58 206.33-21.4 205.73-19.9L205.73-19.9 195.88 6.4Q193.38 13.05 188.43 13.05L188.43 13.05Q186.33 13.05 185.03 11.95 183.73 10.85 183.73 9.28 183.73 7.7 184.58 6.6L184.58 6.6Q185.73 7.65 187.18 7.65L187.18 7.65Q189.58 7.65 190.63 4.7L190.63 4.7 192.08 0.5Q191.93 0.5 191.83 0.5L191.83 0.5Q190.28 0.5 188.93-0.7 187.58-1.9 186.93-4.05L186.93-4.05 181.33-21.05Q180.53-23.7 179.38-24.55L179.38-24.55Q181.08-26.35 183.11-26.35 185.13-26.35 186.21-25.23 187.28-24.1 187.98-21.65L187.98-21.65 193.43-3.35ZM253.38-30.05L253.38-30.05Q253.38-28.2 252.1-27.28 250.83-26.35 248.98-26.35 247.13-26.35 245.83-27.1L245.83-27.1Q245.93-27.75 245.93-28.35L245.93-28.35Q245.93-30.2 244.8-31.58 243.68-32.95 240.88-32.95L240.88-32.95Q236.93-32.95 234.03-29.15 231.13-25.35 231.13-18.55 231.13-11.75 234.05-8.53 236.98-5.3 242.08-5.3L242.08-5.3Q245.08-5.3 247.75-6.65 250.43-8 252.03-9.85L252.03-9.85Q252.68-9.7 253.08-8.9 253.48-8.1 253.48-7.3L253.48-7.3Q253.48-4.7 249.6-2.1 245.73 0.5 240.38 0.5L240.38 0.5Q232.98 0.5 228.63-4.35 224.28-9.2 224.28-17.8 224.28-26.4 229.08-31.65 233.88-36.9 241.68-36.9L241.68-36.9Q246.53-36.9 249.95-34.9 253.38-32.9 253.38-30.05ZM271.28-22.95L271.28-22.95Q265.83-22.95 265.83-14.55L265.83-14.55Q265.83-13.8 265.88-12.95L265.88-12.95Q266.43-2.9 272.38-2.9L272.38-2.9Q277.73-2.9 277.73-11.2L277.73-11.2Q277.73-12 277.68-12.95L277.68-12.95Q277.13-22.95 271.28-22.95ZM259.33-12.95Q259.33-19.4 262.83-22.88 266.33-26.35 271.8-26.35 277.28-26.35 280.78-22.85 284.28-19.35 284.28-12.93 284.28-6.5 280.78-3 277.28 0.5 271.83 0.5 266.38 0.5 262.85-3 259.33-6.5 259.33-12.95ZM313.82-17.5L313.82-17.5 313.82-4.35Q313.82-2.2 315.32-1.45L315.32-1.45Q313.77 0.5 311.47 0.5L311.47 0.5Q307.37 0.5 307.37-4.5L307.37-4.5 307.37-16.7Q307.37-21.1 303.57-21.1L303.57-21.1Q301.62-21.1 299.82-19.4 298.02-17.7 297.32-14.65L297.32-14.65 297.32-4.35Q297.32-2.2 298.82-1.45L298.82-1.45Q297.27 0.5 294.97 0.5L294.97 0.5Q290.87 0.5 290.87-4.5L290.87-4.5 290.87-21.5Q290.87-23.7 289.37-24.45L289.37-24.45Q290.82-26.35 293.17-26.35L293.17-26.35Q297.32-26.35 297.32-21.35L297.32-21.35 297.32-20.8Q298.62-23.4 301.02-24.88 303.42-26.35 306.6-26.35 309.77-26.35 311.8-24.1 313.82-21.85 313.82-17.5ZM344.82-17.5L344.82-17.5 344.82-4.35Q344.82-2.2 346.32-1.45L346.32-1.45Q344.77 0.5 342.47 0.5L342.47 0.5Q338.37 0.5 338.37-4.5L338.37-4.5 338.37-16.7Q338.37-21.1 334.57-21.1L334.57-21.1Q332.62-21.1 330.82-19.4 329.02-17.7 328.32-14.65L328.32-14.65 328.32-4.35Q328.32-2.2 329.82-1.45L329.82-1.45Q328.27 0.5 325.97 0.5L325.97 0.5Q321.87 0.5 321.87-4.5L321.87-4.5 321.87-21.5Q321.87-23.7 320.37-24.45L320.37-24.45Q321.82-26.35 324.17-26.35L324.17-26.35Q328.32-26.35 328.32-21.35L328.32-21.35 328.32-20.8Q329.62-23.4 332.02-24.88 334.42-26.35 337.6-26.35 340.77-26.35 342.8-24.1 344.82-21.85 344.82-17.5ZM364.57-16.1Q365.57-16.2 366.02-16.7 366.47-17.2 366.47-18.7 366.47-20.2 365.52-21.45 364.57-22.7 362.84-22.7 361.12-22.7 359.69-20.83 358.27-18.95 357.82-15.45L357.82-15.45 364.57-16.1ZM364.57-4.15L364.57-4.15Q368.67-4.15 371.47-7.1L371.47-7.1Q372.42-6.6 372.42-5.3L372.42-5.3Q372.42-3.2 369.74-1.35 367.07 0.5 363.42 0.5L363.42 0.5Q357.77 0.5 354.47-2.75 351.17-6 351.17-12 351.17-18 354.79-22.18 358.42-26.35 363.67-26.35L363.67-26.35Q367.72-26.35 370.34-23.68 372.97-21 372.97-17.55L372.97-17.55Q372.97-14.95 371.67-13.78 370.37-12.6 367.32-12.55L367.32-12.55 357.67-12.25Q357.87-4.15 364.57-4.15ZM398.12-20.85L398.12-20.85Q398.12-19.25 397.12-18.35 396.12-17.45 394.59-17.45 393.07-17.45 391.87-18.3L391.87-18.3Q392.02-18.9 392.02-19.9 392.02-20.9 391.32-21.7 390.62-22.5 389.27-22.5L389.27-22.5Q386.87-22.5 385.07-19.8 383.27-17.1 383.27-12.85 383.27-8.6 385.19-6.4 387.12-4.2 390.07-4.2L390.07-4.2Q394.27-4.2 397.02-7.15L397.02-7.15Q397.97-6.7 397.97-5.3L397.97-5.3Q397.97-3.1 395.29-1.3 392.62 0.5 388.97 0.5L388.97 0.5Q383.52 0.5 380.27-2.8 377.02-6.1 377.02-12 377.02-17.9 380.79-22.13 384.57-26.35 390.27-26.35L390.27-26.35Q393.57-26.35 395.84-24.83 398.12-23.3 398.12-20.85ZM411.41-21.65L410.91-21.65 410.91-7.3Q410.91-5.6 411.54-4.83 412.16-4.05 413.61-4.05L413.61-4.05Q416.56-4.05 418.91-6.55L418.91-6.55Q419.46-6.5 419.86-6 420.26-5.5 420.26-4.7L420.26-4.7Q420.26-2.75 417.89-1.13 415.51 0.5 412.01 0.5 408.51 0.5 406.49-1.28 404.46-3.05 404.46-6.65L404.46-6.65 404.46-21.65Q402.51-21.7 401.59-22.45 400.66-23.2 400.66-24.3 400.66-25.4 401.56-26.05L401.56-26.05Q403.06-25.85 404.16-25.85L404.16-25.85 404.46-25.85 404.46-28.3Q404.46-30.5 402.91-31.25L402.91-31.25Q404.46-33.15 406.71-33.15L406.71-33.15Q410.91-33.15 410.91-28.15L410.91-28.15 410.91-25.85 418.76-25.85Q419.06-25.4 419.06-24.9L419.06-24.9Q419.06-23.55 417.34-22.6 415.61-21.65 411.41-21.65L411.41-21.65ZM428.76-38.2Q430.46-38.2 431.56-37.18 432.66-36.15 432.66-34.48 432.66-32.8 431.24-31.43 429.81-30.05 428.01-30.05 426.21-30.05 425.09-31.1 423.96-32.15 423.96-33.9 423.96-35.65 425.51-36.93 427.06-38.2 428.76-38.2ZM431.71-21.35L431.71-21.35 431.71-4.35Q431.71-2.2 433.21-1.45L433.21-1.45Q431.66 0.5 429.36 0.5L429.36 0.5Q425.26 0.5 425.26-4.5L425.26-4.5 425.26-21.5Q425.26-23.7 423.76-24.45L423.76-24.45Q425.21-26.35 427.56-26.35L427.56-26.35Q431.71-26.35 431.71-21.35ZM450.06-22.95L450.06-22.95Q444.61-22.95 444.61-14.55L444.61-14.55Q444.61-13.8 444.66-12.95L444.66-12.95Q445.21-2.9 451.16-2.9L451.16-2.9Q456.51-2.9 456.51-11.2L456.51-11.2Q456.51-12 456.46-12.95L456.46-12.95Q455.91-22.95 450.06-22.95ZM438.11-12.95Q438.11-19.4 441.61-22.88 445.11-26.35 450.58-26.35 456.06-26.35 459.56-22.85 463.06-19.35 463.06-12.93 463.06-6.5 459.56-3 456.06 0.5 450.61 0.5 445.16 0.5 441.63-3 438.11-6.5 438.11-12.95ZM492.61-17.5L492.61-17.5 492.61-4.35Q492.61-2.2 494.11-1.45L494.11-1.45Q492.56 0.5 490.26 0.5L490.26 0.5Q486.16 0.5 486.16-4.5L486.16-4.5 486.16-16.7Q486.16-21.1 482.36-21.1L482.36-21.1Q480.41-21.1 478.61-19.4 476.81-17.7 476.11-14.65L476.11-14.65 476.11-4.35Q476.11-2.2 477.61-1.45L477.61-1.45Q476.06 0.5 473.76 0.5L473.76 0.5Q469.66 0.5 469.66-4.5L469.66-4.5 469.66-21.5Q469.66-23.7 468.16-24.45L468.16-24.45Q469.61-26.35 471.96-26.35L471.96-26.35Q476.11-26.35 476.11-21.35L476.11-21.35 476.11-20.8Q477.41-23.4 479.81-24.88 482.21-26.35 485.38-26.35 488.56-26.35 490.58-24.1 492.61-21.85 492.61-17.5Z" opacity="1" transform="matrix(1,0,0,1,0,0)" fill="#c9efc7" class="wordmark-text-0" data-fill-palette-color="primary" id="text-0"></path></svg></g></svg></g><g transform="matrix(1,0,0,1,0,31.87501265805712)"><svg viewBox="0 0 244.43135999999998 15.936526413164966" height="15.936526413164966" width="244.43135999999998"><g transform="matrix(1,0,0,1,0,0)"><svg width="244.43135999999998" viewBox="4 -35.599998474121094 555.22998046875 36.19999694824219" height="15.936526413164966" data-palette-color="#c9efc7"><path d="M15.7 0L15.7 0 4 0 4-33.7 13.4-33.7Q18.5-33.7 21.68-31.38 24.85-29.05 24.85-24.95L24.85-24.95Q24.85-21.95 23.18-19.83 21.5-17.7 18.85-17.15L18.85-17.15Q21.7-16.8 23.78-14.7 25.85-12.6 25.85-8.95L25.85-8.95Q25.85-4.9 23.23-2.45 20.6 0 15.7 0ZM13.75-30.95L13.75-30.95 7.1-30.95 7.1-18.4 13.15-18.4Q17.5-18.4 19.55-20.28 21.6-22.15 21.6-25.05L21.6-25.05Q21.6-27.55 19.63-29.25 17.65-30.95 13.75-30.95ZM14.75-15.65L14.75-15.65 7.1-15.65 7.1-2.75 15.7-2.75Q18.95-2.75 20.78-4.38 22.6-6 22.6-9.05L22.6-9.05Q22.6-12.2 20.53-13.93 18.45-15.65 14.75-15.65ZM61.26-4.35L61.26-1.25Q58.26 0.25 54.26 0.25L54.26 0.25Q48.61 0.25 45.08-3.28 41.56-6.8 41.56-12.55L41.56-12.55Q41.56-18.65 44.66-22.15 47.76-25.65 52.71-25.65L52.71-25.65Q57.36-25.65 60.11-22.6 62.86-19.55 62.86-14L62.86-14Q62.86-12.3 62.66-11.3L62.66-11.3 44.76-11.3Q45.11-7.1 47.66-4.88 50.21-2.65 54.41-2.65L54.41-2.65Q58.71-2.65 61.26-4.35L61.26-4.35ZM52.61-22.8L52.61-22.8Q49.41-22.8 47.26-20.55 45.11-18.3 44.76-14.1L44.76-14.1 59.71-14.1 59.71-15.25Q59.71-18.7 57.78-20.75 55.86-22.8 52.61-22.8ZM110.92-2.55L110.92-2.55Q113.92-2.55 115.72-4.2 117.52-5.85 117.52-8.4L117.52-8.4 117.52-12.05 112.57-12.05Q109.02-12.05 107.27-10.68 105.52-9.3 105.52-7.25L105.52-7.25Q105.52-5.15 106.9-3.85 108.27-2.55 110.92-2.55ZM117.52 0L117.52-2.95Q115.42 0.25 110.22 0.25L110.22 0.25Q106.72 0.25 104.5-1.83 102.27-3.9 102.27-7.15L102.27-7.15Q102.27-10.8 105.1-12.83 107.92-14.85 112.57-14.85L112.57-14.85 117.52-14.85 117.52-16Q117.52-19.4 116.07-21.13 114.62-22.85 111.22-22.85L111.22-22.85Q107.27-22.85 104.12-20.7L104.12-20.7 104.12-24Q107.02-25.75 111.27-25.75L111.27-25.75Q120.57-25.75 120.57-16L120.57-16 120.57 0 117.52 0ZM179.44-3.95L179.44-0.85Q177.29 0.6 173.89 0.6L173.89 0.6Q167.74 0.6 164.29-3.28 160.84-7.15 160.84-12.6L160.84-12.6Q160.84-17.9 164.37-21.85 167.89-25.8 173.89-25.8L173.89-25.8Q176.99-25.8 179.44-24.45L179.44-24.45 179.44-21.35Q177.19-22.85 174.19-22.85L174.19-22.85Q169.54-22.85 166.79-19.83 164.04-16.8 164.04-12.55L164.04-12.55Q164.04-8.25 166.69-5.3 169.34-2.35 174.24-2.35L174.24-2.35Q177.29-2.35 179.44-3.95L179.44-3.95ZM216.35-17.7L216.35 0 213.3 0 213.3-16.75Q213.3-19.7 211.8-21.25 210.3-22.8 207.85-22.8L207.85-22.8Q204.75-22.8 202.5-20.43 200.25-18.05 200.25-14L200.25-14 200.25 0 197.2 0 197.2-35.35 200.25-35.35 200.25-21Q202.55-25.75 208.3-25.75L208.3-25.75Q211.95-25.75 214.15-23.5 216.35-21.25 216.35-17.7L216.35-17.7ZM253.01-4.35L253.01-1.25Q250.01 0.25 246.01 0.25L246.01 0.25Q240.36 0.25 236.83-3.28 233.31-6.8 233.31-12.55L233.31-12.55Q233.31-18.65 236.41-22.15 239.51-25.65 244.46-25.65L244.46-25.65Q249.11-25.65 251.86-22.6 254.61-19.55 254.61-14L254.61-14Q254.61-12.3 254.41-11.3L254.41-11.3 236.51-11.3Q236.86-7.1 239.41-4.88 241.96-2.65 246.16-2.65L246.16-2.65Q250.46-2.65 253.01-4.35L253.01-4.35ZM244.36-22.8L244.36-22.8Q241.16-22.8 239.01-20.55 236.86-18.3 236.51-14.1L236.51-14.1 251.46-14.1 251.46-15.25Q251.46-18.7 249.53-20.75 247.61-22.8 244.36-22.8ZM283.21-25.35L283.21-22.75 277.41-22.75 277.41 0 274.36 0 274.36-22.75 269.71-22.75 269.71-25.35 274.36-25.35 274.36-28.05Q274.36-31.5 276.16-33.55 277.96-35.6 281.21-35.6L281.21-35.6Q282.16-35.6 283.26-35.3L283.26-35.3 283.26-32.3Q282.21-32.7 281.06-32.7L281.06-32.7Q279.56-32.7 278.49-31.53 277.41-30.35 277.41-28L277.41-28 277.41-25.35 283.21-25.35ZM330.13-2.55L330.13-2.55Q333.13-2.55 334.93-4.2 336.73-5.85 336.73-8.4L336.73-8.4 336.73-12.05 331.78-12.05Q328.23-12.05 326.48-10.68 324.73-9.3 324.73-7.25L324.73-7.25Q324.73-5.15 326.11-3.85 327.48-2.55 330.13-2.55ZM336.73 0L336.73-2.95Q334.63 0.25 329.43 0.25L329.43 0.25Q325.93 0.25 323.71-1.83 321.48-3.9 321.48-7.15L321.48-7.15Q321.48-10.8 324.31-12.83 327.13-14.85 331.78-14.85L331.78-14.85 336.73-14.85 336.73-16Q336.73-19.4 335.28-21.13 333.83-22.85 330.43-22.85L330.43-22.85Q326.48-22.85 323.33-20.7L323.33-20.7 323.33-24Q326.23-25.75 330.48-25.75L330.48-25.75Q339.78-25.75 339.78-16L339.78-16 339.78 0 336.73 0ZM370.44-3.8L370.44-0.7Q368.99 0.25 367.09 0.25L367.09 0.25Q359.89 0.25 359.89-7.15L359.89-7.15 359.89-22.75 355.74-22.75 355.74-25.35 359.89-25.35 359.89-31.7 362.99-31.7 362.99-25.35 370.24-25.35 370.24-22.75 362.99-22.75 362.99-7Q362.99-2.65 367.04-2.65L367.04-2.65Q369.04-2.65 370.44-3.8L370.44-3.8ZM430.15-17.7L430.15 0 427.1 0 427.1-16.75Q427.1-19.7 425.6-21.25 424.1-22.8 421.65-22.8L421.65-22.8Q418.55-22.8 416.3-20.43 414.05-18.05 414.05-14L414.05-14 414.05 0 411 0 411-35.35 414.05-35.35 414.05-21Q416.35-25.75 422.1-25.75L422.1-25.75Q425.75-25.75 427.95-23.5 430.15-21.25 430.15-17.7L430.15-17.7ZM470.66-12.55L470.66-12.55Q470.66-6.9 467.49-3.23 464.31 0.45 458.76 0.45L458.76 0.45Q453.41 0.45 450.26-3.25 447.11-6.95 447.11-12.55L447.11-12.55Q447.11-18.1 450.36-21.9 453.61-25.7 458.76-25.7L458.76-25.7Q464.41-25.7 467.54-21.98 470.66-18.25 470.66-12.55ZM450.31-12.55L450.31-12.55Q450.31-8.4 452.64-5.43 454.96-2.45 458.76-2.45L458.76-2.45Q462.91-2.45 465.19-5.38 467.46-8.3 467.46-12.55L467.46-12.55Q467.46-16.95 465.31-19.88 463.16-22.8 458.76-22.8L458.76-22.8Q454.81-22.8 452.56-19.8 450.31-16.8 450.31-12.55ZM520.97-17.7L520.97 0 517.92 0 517.92-16.75Q517.92-22.8 512.62-22.8L512.62-22.8Q510.02-22.8 508-20.4 505.97-18 505.97-14L505.97-14 505.97 0 502.92 0 502.92-16.75Q502.92-22.8 497.62-22.8L497.62-22.8Q495.02-22.8 493-20.4 490.97-18 490.97-14L490.97-14 490.97 0 487.92 0 487.92-25.35 490.97-25.35 490.97-21.2Q493.12-25.75 498.07-25.75L498.07-25.75Q504.17-25.75 505.57-20.75L505.57-20.75Q507.92-25.75 513.07-25.75L513.07-25.75Q517.07-25.75 519.02-23.53 520.97-21.3 520.97-17.7L520.97-17.7ZM557.63-4.35L557.63-1.25Q554.63 0.25 550.63 0.25L550.63 0.25Q544.98 0.25 541.45-3.28 537.93-6.8 537.93-12.55L537.93-12.55Q537.93-18.65 541.03-22.15 544.13-25.65 549.08-25.65L549.08-25.65Q553.73-25.65 556.48-22.6 559.23-19.55 559.23-14L559.23-14Q559.23-12.3 559.03-11.3L559.03-11.3 541.13-11.3Q541.48-7.1 544.03-4.88 546.58-2.65 550.78-2.65L550.78-2.65Q555.08-2.65 557.63-4.35L557.63-4.35ZM548.98-22.8L548.98-22.8Q545.78-22.8 543.63-20.55 541.48-18.3 541.13-14.1L541.13-14.1 556.08-14.1 556.08-15.25Q556.08-18.7 554.15-20.75 552.23-22.8 548.98-22.8Z" opacity="1" transform="matrix(1,0,0,1,0,0)" fill="#c9efc7" class="slogan-text-1" data-fill-palette-color="secondary" id="text-1"></path></svg></g></svg></g></svg></g></svg></g></svg></g></svg></g></svg></g><g><path d="M245.816 0c68.262 0 123.6 55.338 123.6 123.6 0 68.262-55.338 123.6-123.6 123.6-59.006 0-108.355-41.348-120.654-96.65l1.192 0c12.277 54.655 61.101 95.488 119.462 95.487 67.62 0 122.437-54.817 122.437-122.437 0-67.62-54.817-122.437-122.437-122.437-58.361 0-107.185 40.833-119.462 95.487l-1.192 0c12.298-55.302 61.647-96.65 120.654-96.65z" fill="#c9efc7" stroke="transparent" data-fill-palette-color="tertiary"></path></g></svg></g><defs></defs></svg><rect width="395.52" height="247.2" fill="none" stroke="none" visibility="hidden"></rect></g></svg></g></svg>